<svg xmlns="http://www.w3.org/2000/svg" style="display:none" aria-hidden="true">
<symbol id="ico1" viewBox="0 0 24 24">
              <path d="M16.7138 6.22672C17.0067 5.93397 17.4815 5.93384 17.7743 6.22672C18.067 6.51958 18.067 6.99443 17.7743 7.28727L13.0605 11.9992L17.7743 16.7131C18.0669 17.006 18.0671 17.4808 17.7743 17.7736C17.4815 18.0664 17.0067 18.0662 16.7138 17.7736L12.0009 13.0607L7.288 17.7736C6.99515 18.0663 6.52031 18.0663 6.22746 17.7736C5.93462 17.4808 5.93473 17.006 6.22746 16.7131L10.9394 12.0002L6.22746 7.28727C5.93461 6.99437 5.93459 6.51959 6.22746 6.22672C6.52036 5.93388 6.99513 5.93385 7.288 6.22672L11.9999 10.9396L16.7138 6.22672Z" fill="currentColor"></path>
            </symbol>
<symbol id="ico2" viewBox="0 0 24 24">
              <path d="M21 18.25C21.4142 18.25 21.75 18.5858 21.75 19C21.75 19.4142 21.4142 19.75 21 19.75H3C2.58579 19.75 2.25 19.4142 2.25 19C2.25 18.5858 2.58579 18.25 3 18.25H21ZM21 11.25C21.4142 11.25 21.75 11.5858 21.75 12C21.75 12.4142 21.4142 12.75 21 12.75H3C2.58579 12.75 2.25 12.4142 2.25 12C2.25 11.5858 2.58579 11.25 3 11.25H21ZM21 4.25C21.4142 4.25 21.75 4.58579 21.75 5C21.75 5.41421 21.4142 5.75 21 5.75H3C2.58579 5.75 2.25 5.41421 2.25 5C2.25 4.58579 2.58579 4.25 3 4.25H21Z" fill="currentColor"></path>
            </symbol>
<symbol id="ico3" viewBox="0 0 50 50">
                <circle class="path" cx="25" cy="25" r="20" fill="none" stroke-width="5"></circle>
              </symbol>
<symbol id="ico4" viewBox="0 0 36 18"><rect width="36" height="18" rx="3" fill="#fff" fill-opacity="0.15"/><path d="M14.5 13.5L16.2 4.5H18.8L17.1 13.5H14.5ZM24.4 4.7C23.9 4.5 23.1 4.3 22.1 4.3C19.6 4.3 17.8 5.6 17.8 7.5C17.8 8.9 19.1 9.7 20 10.1C21 10.6 21.3 10.9 21.3 11.4C21.3 12.1 20.4 12.4 19.6 12.4C18.6 12.4 18 12.2 17.3 11.9L16.9 11.7L16.5 13.6C17.2 13.9 18.4 14.2 19.6 14.2C22.3 14.2 24.1 12.9 24.1 10.8C24.1 9.2 22.9 8.5 21.7 7.9C20.8 7.5 20.4 7.2 20.4 6.7C20.4 6.2 21 5.9 22 5.9C22.8 5.9 23.4 6.1 23.9 6.3L24.4 4.7ZM28.5 4.5H26.3C25.7 4.5 25.2 4.7 24.9 5.4L21.3 13.5H24L24.6 11.9H27.9L28.2 13.5H30.6L28.5 4.5ZM25.3 9.9L26.4 6.8L27.1 9.9H25.3ZM12.7 4.5L10.3 10.7L9.9 8.7C9.6 7.4 8.5 6 7.2 5.3L9.6 13.5H12.3L15.3 4.5H12.7Z" fill="#5ee9b5"/></symbol>
<symbol id="ico5" viewBox="0 0 30 18"><rect width="30" height="18" rx="3" fill="#fff" fill-opacity="0.15"/><circle cx="11" cy="9" r="6" fill="#ff6467" fill-opacity="0.85"/><circle cx="19" cy="9" r="6" fill="#f59e0b" fill-opacity="0.85"/></symbol>
<symbol id="ico6" viewBox="0 0 24 24"><path d="M12 22s8-4 8-10V5l-8-3-8 3v7c0 6 8 10 8 10z"/><path d="m9 12 2 2 4-4"/></symbol>
<symbol id="ico7" viewBox="0 0 24 24"><path d="M22.66 12.97C22.62 12.88 22.57 12.8 22.5 12.73C22.43 12.66 22.35 12.61 22.26 12.57C22.17 12.53 22.07 12.51 21.97 12.51C21.87 12.51 21.77 12.53 21.68 12.57C21.59 12.61 21.51 12.66 21.44 12.73C21.37 12.8 21.32 12.88 21.28 12.97C21.24 13.06 21.22 13.16 21.22 13.26V14.01C21.22 15.8 21.22 17.07 21.09 18.04C20.97 18.99 20.74 19.56 20.35 20C20.21 20.16 20.06 20.3 19.89 20.43C19.42 20.8 18.8 21.02 17.76 21.14C16.72 21.26 15.36 21.26 13.46 21.26H10.46C8.56 21.26 7.2 21.26 6.16 21.14C5.13 21.02 4.51 20.8 4.03 20.43C3.86 20.3 3.71 20.16 3.57 20C3.18 19.57 2.95 19 2.83 18.04C2.71 17.07 2.7 15.8 2.7 14.01C2.7 13.15 2.7 12.41 2.72 11.76H9.95C10.36 11.76 10.7 11.42 10.7 11.01C10.7 10.6 10.36 10.26 9.95 10.26H2.82C2.82 10.17 2.83 10.06 2.85 9.98001C2.97 9.03001 3.2 8.46001 3.59 8.02001C3.73 7.86001 3.88 7.72001 4.05 7.59001C4.46 7.27001 4.98 7.06001 5.78 6.93001C6.59 6.80001 7.63 6.77001 9.05 6.76001C9.25 6.76001 9.44 6.68001 9.58 6.54001C9.72 6.40001 9.8 6.21001 9.8 6.01001C9.8 5.81001 9.72 5.62001 9.58 5.48001C9.44 5.34001 9.25 5.26001 9.05 5.26001C7.64 5.26001 6.5 5.30001 5.56 5.45001C4.61 5.60001 3.81 5.88001 3.14 6.41001C2.9 6.60001 2.69 6.80001 2.49 7.02001C1.82 7.77001 1.53 8.67001 1.39 9.78001C1.25 10.87 1.25 12.25 1.25 14C1.25 15.75 1.25 17.13 1.39 18.22C1.53 19.33 1.83 20.24 2.49 20.98C2.69 21.2 2.9 21.4 3.14 21.59C3.92 22.21 4.87 22.48 6.03 22.61C7.18 22.74 8.64 22.74 10.5 22.74H13.5C15.36 22.74 16.82 22.74 17.97 22.61C19.13 22.48 20.07 22.2 20.86 21.59C21.1 21.4 21.31 21.2 21.51 20.98C22.18 20.23 22.47 19.33 22.61 18.22C22.75 17.13 22.75 15.75 22.75 14V13.24C22.75 13.14 22.73 13.04 22.69 12.95L22.66 12.97Z" fill="currentColor"></path><path d="M9.22 18.01C9.22 18.42 9.56 18.76 9.97 18.76H11.47C11.88 18.76 12.22 18.42 12.22 18.01C12.22 17.6 11.88 17.26 11.47 17.26H9.97C9.56 17.26 9.22 17.6 9.22 18.01Z" fill="currentColor"></path><path d="M14.47 17.26C14.06 17.26 13.72 17.6 13.72 18.01C13.72 18.42 14.06 18.76 14.47 18.76H17.97C18.38 18.76 18.72 18.42 18.72 18.01C18.72 17.6 18.38 17.26 17.97 17.26H14.47Z" fill="currentColor"></path><path d="M16.97 9.76001C17.71 9.76001 18.43 9.54001 19.04 9.14001L20.44 10.54C20.73 10.83 21.21 10.83 21.5 10.54C21.79 10.25 21.79 9.77001 21.5 9.48001L20.1 8.08001C20.5 7.47001 20.72 6.75001 20.72 6.01001C20.72 5.02001 20.32 4.06001 19.62 3.36001C18.92 2.66001 17.96 2.26001 16.97 2.26001C15.98 2.26001 15.02 2.66001 14.32 3.36001C13.62 4.06001 13.22 5.02001 13.22 6.01001C13.22 7.00001 13.62 7.96001 14.32 8.66001C15.02 9.36001 15.98 9.76001 16.97 9.76001ZM15.38 4.42001C15.8 4.00001 16.37 3.76001 16.97 3.76001C17.57 3.76001 18.14 4.00001 18.56 4.42001C18.98 4.84001 19.22 5.41001 19.22 6.01001C19.22 6.61001 18.98 7.18001 18.56 7.60001C18.14 8.02001 17.57 8.26001 16.97 8.26001C16.37 8.26001 15.8 8.02001 15.38 7.60001C14.96 7.18001 14.72 6.61001 14.72 6.01001C14.72 5.41001 14.96 4.84001 15.38 4.42001Z" fill="currentColor"></path></symbol>
<symbol id="ico8" viewBox="0 0 24 24"><path d="M12 1.25C6.06 1.25 1.25 6.06 1.25 12C1.25 17.94 6.06 22.75 12 22.75C17.94 22.75 22.75 17.94 22.75 12C22.75 6.06 17.94 1.25 12 1.25ZM12 21.25C6.89 21.25 2.75 17.11 2.75 12C2.75 6.89 6.89 2.75 12 2.75C17.11 2.75 21.25 6.89 21.25 12C21.25 17.11 17.11 21.25 12 21.25Z" fill="currentColor"></path><path d="M15.45 8.49L10.48 13.91L8.53 11.96C8.24 11.67 7.76 11.67 7.47 11.96C7.18 12.25 7.18 12.73 7.47 13.02L9.97 15.52C10.11 15.66 10.31 15.74 10.52 15.74C10.72 15.74 10.92 15.65 11.06 15.5L16.56 9.5C16.84 9.19 16.82 8.72 16.51 8.44C16.2 8.16 15.73 8.18 15.45 8.49Z" fill="currentColor"></path></symbol>
<symbol id="ico9" viewBox="0 0 24 24"><path d="M20.4898 12.05C20.2498 10.29 18.9598 8.85997 17.2598 8.45997V6.49997C17.2598 5.10997 16.7098 3.76997 15.7198 2.78997C14.7398 1.80997 13.3998 1.24997 12.0098 1.24997C10.6198 1.24997 9.27977 1.79997 8.29977 2.78997C7.31977 3.77997 6.75977 5.10997 6.75977 6.49997V8.45997C5.06977 8.85997 3.76977 10.3 3.52977 12.05C3.37977 13.15 3.25977 14.31 3.25977 15.5C3.25977 16.69 3.38977 17.84 3.52977 18.95C3.79977 20.97 5.46977 22.56 7.52977 22.65C8.95977 22.72 10.4098 22.75 11.9998 22.75C13.5898 22.75 15.0498 22.72 16.4698 22.65C18.5298 22.56 20.1998 20.96 20.4698 18.95C20.6198 17.85 20.7398 16.69 20.7398 15.5C20.7398 14.31 20.6098 13.16 20.4698 12.05H20.4898ZM9.35977 3.84997C10.0598 3.14997 11.0198 2.74997 12.0098 2.74997C12.9998 2.74997 13.9598 3.14997 14.6598 3.84997C15.3598 4.54997 15.7598 5.50997 15.7598 6.49997V8.32997C14.5098 8.27997 13.2598 8.24997 12.0098 8.24997C10.6798 8.24997 9.45977 8.27997 8.25977 8.32997V6.49997C8.25977 5.50997 8.65977 4.54997 9.35977 3.84997ZM18.9998 18.75C18.8198 20.07 17.7298 21.1 16.4198 21.16C15.0198 21.23 13.5898 21.26 12.0098 21.26C10.4298 21.26 9.00977 21.23 7.59977 21.16C6.28977 21.1 5.19977 20.08 5.01977 18.75C4.86977 17.67 4.75977 16.59 4.75977 15.5C4.75977 14.41 4.86977 13.33 5.01977 12.26C5.19977 10.94 6.28977 9.90997 7.59977 9.84997C8.99977 9.77997 10.4298 9.74997 12.0098 9.74997C13.4798 9.74997 14.9498 9.77997 16.4098 9.84997C17.7198 9.90997 18.8098 10.93 18.9898 12.26C19.1398 13.34 19.2498 14.42 19.2498 15.51C19.2498 16.6 19.1298 17.68 18.9898 18.76L18.9998 18.75Z" fill="currentColor"></path></symbol>
<symbol id="ico10" viewBox="0 0 24 24"><path d="M22.58 5.965C22.4 4.655 22.04 3.615 21.21 2.795C20.38 1.975 19.34 1.605 18.04 1.425C16.75 1.255 15.1 1.255 13 1.255H11C8.9 1.255 7.25 1.255 5.96 1.425C4.65 1.605 3.61 1.965 2.79 2.795C1.97 3.625 1.6 4.665 1.42 5.965C1.25 7.255 1.25 8.905 1.25 11.005C1.25 13.105 1.25 14.755 1.42 16.045C1.6 17.355 1.96 18.395 2.79 19.215C3.45 19.875 4.27 20.245 5.25 20.445V21.995C5.25 22.405 5.59 22.745 6 22.745C6.41 22.745 6.75 22.405 6.75 21.995V20.645C7.91 20.735 9.3 20.745 11 20.745H13C14.7 20.745 16.09 20.745 17.25 20.645V21.995C17.25 22.405 17.59 22.745 18 22.745C18.41 22.745 18.75 22.405 18.75 21.995V20.445C19.73 20.235 20.55 19.875 21.21 19.215C22.03 18.395 22.4 17.345 22.58 16.045C22.75 14.755 22.75 13.105 22.75 11.005C22.75 8.905 22.75 7.255 22.58 5.965ZM21.09 15.845C20.94 16.985 20.65 17.665 20.15 18.155C19.65 18.655 18.98 18.945 17.84 19.095C16.68 19.255 15.14 19.255 13 19.255H11C8.86 19.255 7.33 19.255 6.16 19.095C5.02 18.945 4.34 18.655 3.85 18.155C3.35 17.655 3.06 16.985 2.91 15.845C2.75 14.685 2.75 13.145 2.75 11.005C2.75 8.865 2.75 7.335 2.91 6.165C3.06 5.025 3.35 4.345 3.85 3.855C4.35 3.365 5.02 3.065 6.16 2.915C7.32 2.75501 8.86 2.755 11 2.755H13C15.14 2.755 16.67 2.75501 17.84 2.915C18.98 3.065 19.66 3.355 20.15 3.855C20.65 4.355 20.94 5.025 21.09 6.165C21.25 7.325 21.25 8.865 21.25 11.005C21.25 13.145 21.25 14.675 21.09 15.845Z" fill="currentColor"></path></symbol>
<symbol id="ico11" viewBox="0 0 24 24"><path fill="none" stroke="currentColor" stroke-width="1.5" stroke-linecap="round" stroke-linejoin="round" d="M12 3v17.25m0 0c-1.472 0-2.882.265-4.185.75M12 20.25c1.472 0 2.882.265 4.185.75M18.75 4.97A48.416 48.416 0 0 0 12 4.5c-2.291 0-4.545.16-6.75.47m13.5 0c1.01.143 2.01.317 3 .52m-3-.52 2.62 10.726c.122.499-.106 1.028-.589 1.202a5.988 5.988 0 0 1-2.031.352 5.988 5.988 0 0 1-2.031-.352c-.483-.174-.711-.703-.59-1.202L18.75 4.971Zm-16.5.52c.99-.203 1.99-.377 3-.52m0 0 2.62 10.726c.122.499-.106 1.028-.589 1.202a5.989 5.989 0 0 1-2.031.352 5.989 5.989 0 0 1-2.031-.352c-.483-.174-.711-.703-.59-1.202L5.25 4.971Z"></path></symbol>
<symbol id="ico12" viewBox="0 0 24 24"><path d="M21.1701 4.52C20.7401 3.83 20.2701 3.48 19.6701 3.15L19.0301 2.82C17.0301 1.82 14.6001 1.25 11.9901 1.25C9.38008 1.25 6.95008 1.83 4.95008 2.82C4.03008 3.28 3.38008 3.59 2.81008 4.52C2.23008 5.46 2.25008 6.4 2.25008 7.75V11.24C2.25008 17.38 7.15008 20.73 9.83008 22.1C10.5701 22.48 11.0801 22.75 12.0001 22.75C12.9201 22.75 13.4301 22.48 14.1701 22.1C16.8501 20.72 21.7501 17.37 21.7501 11.24V7.75C21.7501 6.4 21.7701 5.46 21.1901 4.52H21.1701ZM20.2301 11.24C20.2301 16.47 16.0501 19.44 13.4601 20.77L12.9901 21C12.5901 21.19 12.3701 21.25 11.9701 21.25C11.4401 21.25 11.2201 21.14 10.4801 20.77C7.89008 19.44 3.72008 16.47 3.72008 11.24V7.75C3.72008 6.29 3.74008 5.82 4.06008 5.31C4.38008 4.79 4.66008 4.63 5.60008 4.17C7.38008 3.28 9.58008 2.75 11.9701 2.75C14.3601 2.75 16.5601 3.28 18.3501 4.17C19.2801 4.64 19.5601 4.79 19.8901 5.31C20.2101 5.82 20.2301 6.28 20.2301 7.75V11.24Z" fill="currentColor"></path></symbol>
<symbol id="ico13" viewBox="0 0 64 64"><path d="M31.9844 20.6593H32.0044C33.1044 20.6593 34.0044 19.7593 34.0044 18.6593C34.0044 17.5593 33.1044 16.6593 32.0044 16.6593H31.9844C30.8844 16.6593 29.9844 17.5593 29.9844 18.6593C29.9844 19.7593 30.8844 20.6593 31.9844 20.6593Z" fill="var(--color-on-surface-primary-accent)"></path><path d="M55.3249 48.4893V28.6493C56.1149 28.6193 57.0349 28.4993 57.8949 28.1093C59.1049 27.5693 60.0849 26.5693 60.4949 25.0193C60.6749 24.3493 60.6549 23.5893 60.6549 22.8493C60.6549 20.9793 60.2749 19.3093 59.3849 17.8493C58.5049 16.3993 57.2149 15.3293 55.6849 14.4693L44.7249 8.36935C41.8849 6.78935 39.6349 5.53935 37.7049 4.68935C35.7249 3.82935 33.9349 3.32935 31.9949 3.32935C30.0549 3.32935 28.2649 3.82935 26.2849 4.69935C24.8349 5.32935 23.2049 6.19935 21.2849 7.25935L19.2649 8.37935L8.30488 14.4793C6.76488 15.3393 5.48488 16.4093 4.59488 17.8593C3.70488 19.3093 3.32488 20.9793 3.32488 22.8493C3.32488 23.5893 3.30488 24.3393 3.48488 25.0093C3.89488 26.5693 4.88488 27.5793 6.08488 28.1093C6.94488 28.4893 7.86488 28.6093 8.65488 28.6493V48.4893C7.77488 48.9493 6.96488 49.5493 6.25488 50.2593C4.37488 52.1293 3.32488 54.6793 3.32488 57.3293C3.32488 58.2093 3.67488 59.0593 4.30488 59.6893C4.92488 60.3193 5.77488 60.6693 6.66488 60.6693H57.3349C58.2149 60.6693 59.0649 60.3193 59.6949 59.6893C60.3149 59.0693 60.6749 58.2193 60.6749 57.3293C60.6749 54.6793 59.6249 52.1293 57.7449 50.2593C57.0349 49.5493 56.2149 48.9493 55.3449 48.4893H55.3249ZM12.6549 28.6693H19.3249V47.3293H13.3249C13.1049 47.3293 12.8749 47.3293 12.6549 47.3493V28.6593V28.6693ZM23.3249 28.6693H40.6549V47.3293H23.3249V28.6693ZM44.6549 28.6693H51.3249V47.3593C51.1049 47.3493 50.8849 47.3393 50.6549 47.3393H44.6549V28.6693ZM7.50488 24.3093C7.50488 24.3093 7.40488 24.1893 7.35488 23.9893C7.35488 23.9693 7.34488 23.9093 7.33488 23.7693C7.33488 23.5593 7.33488 23.2893 7.33488 22.8393C7.33488 21.5193 7.59488 20.6193 8.01488 19.9293C8.43488 19.2293 9.12488 18.5893 10.2449 17.9593L21.2049 11.8593L23.2349 10.7393C25.1149 9.69935 26.5949 8.91935 27.8949 8.35935C29.5749 7.62935 30.7949 7.32935 32.0049 7.32935C33.2049 7.32935 34.4349 7.62935 36.1149 8.35935C37.8349 9.10935 39.8949 10.2493 42.7949 11.8693L53.7549 17.9693C54.8749 18.5993 55.5649 19.2393 55.9949 19.9393C56.4149 20.6293 56.6749 21.5293 56.6749 22.8493C56.6749 23.2993 56.6749 23.5693 56.6749 23.7793C56.6749 23.9093 56.6649 23.9693 56.6549 23.9893C56.6049 24.1893 56.5349 24.2693 56.5049 24.3093C56.4649 24.3493 56.4149 24.3993 56.2849 24.4593C55.9949 24.5893 55.5049 24.6693 54.7549 24.6693H9.24488C8.49488 24.6693 8.01488 24.5893 7.72488 24.4593C7.60488 24.4093 7.54488 24.3493 7.50488 24.3093ZM7.36488 56.6593C7.51488 55.3093 8.11488 54.0493 9.08488 53.0793C10.2149 51.9593 11.7349 51.3193 13.3249 51.3193H50.6549C52.2449 51.3193 53.7749 51.9493 54.8949 53.0793C55.8649 54.0493 56.4649 55.3093 56.6149 56.6593H7.36488Z" fill="var(--color-on-surface-primary-accent)"></path></symbol>
<symbol id="ico14" viewBox="0 0 64 64"><path d="M54.0002 29.9645V20.6608C54.0002 16.7565 53.9424 15.5162 53.0998 14.1569C52.2315 12.7561 51.4919 12.3509 48.9993 11.11C44.2491 8.74769 38.3783 7.33264 32.0002 7.33264C25.6222 7.33264 19.7536 8.74632 15.0002 11.109C12.5061 12.3507 11.7667 12.7563 10.9016 14.1549C10.0601 15.5155 10.0002 16.7589 10.0002 20.6608V29.9674C10.0003 43.9117 21.1476 51.8294 28.0412 55.3776C29.9906 56.3788 30.5873 56.6656 32.0002 56.6656C33.4131 56.6656 34.009 56.3787 35.9582 55.3776C42.8495 51.8294 54.0002 43.9092 54.0002 29.9645ZM39.3332 30.6656C39.3331 30.1353 39.1223 29.6266 38.7473 29.2516C38.3723 28.8767 37.8635 28.6656 37.3332 28.6656H26.6672C26.1369 28.6656 25.6282 28.8767 25.2532 29.2516C24.8782 29.6266 24.6673 30.1353 24.6672 30.6656V34.6656C24.6672 35.1961 24.8781 35.7046 25.2532 36.0797C25.6282 36.4548 26.1368 36.6656 26.6672 36.6656H37.3332C37.8637 36.6656 38.3722 36.4548 38.7473 36.0797C39.1224 35.7046 39.3332 35.1961 39.3332 34.6656V30.6656ZM35.3332 22.6656C35.3332 21.7819 34.9825 20.9342 34.3577 20.3092C33.7325 19.6841 32.8843 19.3326 32.0002 19.3326C31.1162 19.3326 30.2679 19.6841 29.6428 20.3092C29.018 20.9342 28.6673 21.7819 28.6672 22.6656V24.6656H35.3332V22.6656ZM39.3332 25.0094C40.1691 25.3049 40.9375 25.7846 41.5764 26.4235C42.7014 27.5486 43.3331 29.0745 43.3332 30.6656V34.6656C43.3332 36.2569 42.7016 37.7836 41.5764 38.9088C40.4512 40.034 38.9245 40.6656 37.3332 40.6656H26.6672C25.0759 40.6656 23.5493 40.034 22.4241 38.9088C21.2988 37.7836 20.6672 36.2569 20.6672 34.6656V30.6656C20.6673 29.0745 21.299 27.5486 22.4241 26.4235C23.0629 25.7846 23.8313 25.3049 24.6672 25.0094V22.6656C24.6673 20.7208 25.4395 18.8553 26.8147 17.4801C28.1899 16.1049 30.0554 15.3326 32.0002 15.3326C33.9451 15.3326 35.8105 16.1049 37.1858 17.4801C38.561 18.8553 39.3331 20.7208 39.3332 22.6656V25.0094ZM58.0002 29.9645C58.0002 46.328 44.9229 55.2616 37.7873 58.9352L37.7864 58.9362C35.821 59.9456 34.4647 60.6656 32.0002 60.6656C29.5358 60.6656 28.1794 59.9456 26.2141 58.9362L26.2131 58.9352C19.0747 55.2615 6.00028 46.3309 6.00023 29.9674V20.6608C6.00023 17.064 5.94611 14.5627 7.49925 12.0514C9.02864 9.57849 10.7634 8.75095 13.218 7.52893L13.219 7.52795C18.5615 4.87222 25.0453 3.33264 32.0002 3.33264C38.955 3.33264 45.4422 4.87292 50.7825 7.52893C53.2388 8.75182 54.9687 9.57863 56.5002 12.0494C58.0576 14.5621 58.0002 17.0664 58.0002 20.6608V29.9645Z" fill="var(--color-on-surface-primary-accent)"></path></symbol>
<symbol id="ico15" viewBox="0 0 64 64"><path d="M30.0062 42.6723V41.7797C27.9043 41.2981 26.0459 40.0592 25.1673 38.1898C24.6975 37.1902 25.1266 35.9985 26.1263 35.5287C27.126 35.0589 28.3176 35.489 28.7874 36.4887C29.0983 37.1498 30.2242 38.0061 32.0062 38.0062C33.0875 38.0062 33.9904 37.6749 34.5775 37.2348C35.1636 36.7954 35.3401 36.3407 35.3402 36.0062C35.3402 35.6727 35.1637 35.2176 34.5775 34.7777C33.9907 34.3376 33.0883 34.0062 32.0062 34.0062C30.1426 34.0062 28.378 33.4425 27.0345 32.435C25.6902 31.4267 24.6733 29.8814 24.6732 28.0062C24.6732 26.1319 25.6909 24.5867 27.0345 23.5785C27.8838 22.9413 28.9014 22.481 30.0062 22.2289V21.3393C30.0062 20.2348 30.9018 19.3394 32.0062 19.3393C33.1108 19.3393 34.0062 20.2347 34.0062 21.3393V22.2318C36.1089 22.714 37.9665 23.9548 38.8451 25.8207C39.3155 26.8199 38.8871 28.0112 37.888 28.4818C36.8887 28.9523 35.6964 28.5241 35.2259 27.5248C34.9148 26.8639 33.7867 26.0062 32.0062 26.0062C30.9241 26.0063 30.0216 26.3376 29.4349 26.7777C28.8488 27.2175 28.6732 27.6728 28.6732 28.0062C28.6733 28.3415 28.8496 28.7958 29.4349 29.2348C30.0213 29.6745 30.9234 30.0062 32.0062 30.0062C33.8706 30.0062 35.6356 30.5707 36.9788 31.5785C38.3224 32.5867 39.3402 34.132 39.3402 36.0062C39.3401 37.8822 38.3211 39.4272 36.9769 40.435C36.1276 41.0716 35.1102 41.5308 34.0062 41.7826V42.6723C34.0062 43.7768 33.1108 44.6723 32.0062 44.6723C30.9018 44.6721 30.0062 43.7767 30.0062 42.6723Z" fill="var(--color-on-surface-primary-accent)"></path></symbol>
<symbol id="ico16" viewBox="0 0 64 64"><path d="M60.3789 35.0491L60.2989 34.7291C59.9789 33.5791 59.4089 32.5591 58.6589 31.4891C57.9189 30.4391 56.9189 29.2291 55.6789 27.7191C55.6089 27.6391 55.4689 27.4591 55.3089 27.2591V23.9991C55.3089 12.3391 44.5989 3.3291 31.9789 3.3291C19.3489 3.3291 8.64891 12.3391 8.64891 23.9991V27.2791C8.51891 27.4391 8.39891 27.5891 8.28891 27.7191C7.04891 29.2191 6.04891 30.4391 5.30891 31.4891C4.55891 32.5591 3.97891 33.5791 3.66891 34.7391C3.19891 36.4391 3.19891 38.2391 3.66891 39.9391L3.75891 40.2391C4.21891 41.7091 5.03891 42.9791 5.85891 44.0491C6.67891 45.1191 7.76891 46.3191 8.41891 47.1091C9.32891 48.2091 10.8989 50.2191 13.7589 49.9891C14.7889 49.9091 15.7589 49.4291 16.8189 48.9491C17.6189 48.5891 18.3889 48.2591 18.9989 47.7291C20.6989 46.2491 20.6589 44.2891 20.6589 43.1991V31.4891C20.6589 30.3991 20.6989 28.4391 18.9989 26.9591L18.7589 26.7691C18.1889 26.3491 17.4989 26.0491 16.8189 25.7391C15.7689 25.2591 14.7889 24.7791 13.7689 24.6991C13.3789 24.6691 13.0089 24.6791 12.6689 24.7291V24.0191C12.6689 15.0591 21.0689 7.3491 31.9989 7.3491C42.9389 7.3491 51.3289 15.0491 51.3289 24.0191V24.7391C50.9689 24.6891 50.5989 24.6691 50.2289 24.6991C49.1989 24.7791 48.2289 25.2591 47.1789 25.7391C46.3189 26.1291 44.4289 26.8591 43.6489 28.8591L43.5789 29.0591C43.3789 29.6591 43.3389 30.2891 43.3389 30.8891V43.7991C43.3389 44.4091 43.3789 45.0391 43.5789 45.6291C44.3089 47.7791 46.2889 48.5491 47.1789 48.9491C48.2289 49.4291 49.2089 49.9091 50.2389 49.9891C50.4789 50.0091 50.7189 50.0091 50.9589 49.9891C50.6989 50.9891 50.3189 51.8091 49.8589 52.4691C48.9789 53.7391 47.6889 54.6491 45.9689 55.2991C42.3789 56.6491 37.4589 56.6691 32.0089 56.6691C30.9089 56.6691 30.0089 57.5691 30.0089 58.6691C30.0089 59.7691 30.9089 60.6691 32.0089 60.6691C37.2189 60.6691 42.9689 60.6991 47.3789 59.0391C49.6589 58.1891 51.6989 56.8491 53.1589 54.7391C54.4989 52.7991 55.2189 50.3691 55.3289 47.4091C55.4189 47.3091 55.4989 47.1991 55.5889 47.0991C56.2489 46.2991 57.3289 45.0991 58.1489 44.0291C59.0189 42.8891 59.8989 41.5091 60.3289 39.9191C60.7689 38.3191 60.7989 36.6491 60.4089 35.0391L60.3789 35.0491ZM13.4289 28.6691C13.5889 28.6791 13.7989 28.7491 15.1489 29.3591C16.1689 29.8191 16.2989 29.8991 16.3689 29.9691C16.4889 30.0691 16.5389 30.1591 16.5789 30.3191C16.6389 30.5591 16.6489 30.8791 16.6489 31.4791V43.1891C16.6489 43.7991 16.6289 44.1091 16.5789 44.3491C16.5389 44.5091 16.4889 44.5991 16.3689 44.6991C16.2989 44.7591 16.1689 44.8391 15.1589 45.2991C14.1589 45.7591 13.7789 45.9091 13.5889 45.9691L13.4389 45.9991C13.1189 46.0291 12.9089 45.9491 12.6789 45.7791C12.3589 45.5491 12.0289 45.1891 11.5089 44.5591C10.5989 43.4491 9.83891 42.6591 9.03891 41.6091C8.28891 40.6291 7.76891 39.7391 7.52891 38.8791C7.24891 37.8691 7.24891 36.7991 7.52891 35.7991C7.67891 35.2691 7.95891 34.6791 8.57891 33.7991C9.20891 32.8991 10.0989 31.8191 11.3789 30.2691C11.9389 29.5791 12.2789 29.1791 12.6289 28.9191C12.8889 28.7191 13.0989 28.6491 13.4289 28.6691ZM56.4389 38.8691C56.1989 39.7391 55.6789 40.6291 54.9389 41.6091C54.1389 42.6591 53.3789 43.4491 52.4689 44.5591C51.5789 45.6391 51.4289 45.7691 51.3289 45.8291C51.0889 45.9591 50.8189 46.0191 50.5489 45.9991C50.3889 45.9891 50.1689 45.9191 48.8289 45.3091L48.1189 44.9691C47.9289 44.8791 47.7889 44.7891 47.6589 44.6991C47.4689 44.5591 47.4089 44.4591 47.3689 44.3391C47.3689 44.3391 47.3589 44.2791 47.3489 44.1491C47.3389 43.9391 47.3389 43.6691 47.3389 43.1891V31.4791C47.3389 30.9891 47.3389 30.7191 47.3489 30.5091C47.3489 30.3791 47.3689 30.3291 47.3689 30.3191C47.4089 30.1991 47.4689 30.1091 47.6689 29.9691C47.9189 29.7891 48.2489 29.6291 48.8389 29.3691C50.1689 28.7591 50.3889 28.6891 50.5489 28.6791C50.8389 28.6591 51.1189 28.7191 51.3389 28.8391C51.4189 28.8891 51.5589 28.9991 51.7489 29.2091C51.8089 29.2991 51.8789 29.3791 51.9589 29.4491C52.1589 29.6891 52.2889 29.8691 52.6089 30.2691C53.8889 31.8191 54.7689 32.8991 55.4089 33.7991C56.0289 34.6791 56.3189 35.2691 56.4589 35.7891C56.7389 36.8091 56.7389 37.8691 56.4589 38.8691H56.4389Z" fill="var(--color-on-surface-primary-accent)"></path></symbol>
<symbol id="ico17" viewBox="0 0 24 24"><path fill="none" stroke="currentColor" stroke-width="1.5" stroke-linecap="round" stroke-linejoin="round" d="M12 3v17.25m0 0c-1.472 0-2.882.265-4.185.75M12 20.25c1.472 0 2.882.265 4.185.75M18.75 4.97A48.416 48.416 0 0 0 12 4.5c-2.291 0-4.545.16-6.75.47m13.5 0c1.01.143 2.01.317 3 .52m-3-.52 2.62 10.726c.122.499-.106 1.028-.589 1.202a5.988 5.988 0 0 1-2.031.352 5.988 5.988 0 0 1-2.031-.352c-.483-.174-.711-.703-.59-1.202L18.75 4.971Zm-16.5.52c.99-.203 1.99-.377 3-.52m0 0 2.62 10.726c.122.499-.106 1.028-.589 1.202a5.989 5.989 0 0 1-2.031.352 5.989 5.989 0 0 1-2.031-.352c-.483-.174-.711-.703-.59-1.202L5.25 4.971Z"></path></symbol>
<symbol id="ico18" viewBox="0 0 24 24"><path fill="none" stroke="currentColor" stroke-width="1.5" stroke-linecap="round" stroke-linejoin="round" d="M15 19.128a9.38 9.38 0 0 0 2.625.372 9.337 9.337 0 0 0 4.121-.952 4.125 4.125 0 0 0-7.533-2.493M15 19.128v-.003c0-1.113-.285-2.16-.786-3.07M15 19.128v.106A12.318 12.318 0 0 1 8.624 21c-2.331 0-4.512-.645-6.374-1.766l-.001-.109a6.375 6.375 0 0 1 11.964-3.07M12 6.375a3.375 3.375 0 1 1-6.75 0 3.375 3.375 0 0 1 6.75 0Zm8.25 2.25a2.625 2.625 0 1 1-5.25 0 2.625 2.625 0 0 1 5.25 0Z"></path></symbol>
<symbol id="ico19" viewBox="0 0 24 24"><path d="M12 1.25C6.06 1.25 1.25 6.06 1.25 12C1.25 17.94 6.06 22.75 12 22.75C17.94 22.75 22.75 17.94 22.75 12C22.75 6.06 17.94 1.25 12 1.25Z" fill="currentColor"/><path d="M15.45 8.49L10.48 13.91L8.53 11.96C8.24 11.67 7.76 11.67 7.47 11.96C7.18 12.25 7.18 12.73 7.47 13.02L9.97 15.52C10.11 15.66 10.31 15.74 10.52 15.74C10.72 15.74 10.92 15.65 11.06 15.5L16.56 9.5C16.84 9.19 16.82 8.72 16.51 8.44C16.2 8.16 15.73 8.18 15.45 8.49Z" fill="currentColor"/></symbol>
<symbol id="ico20" viewBox="0 0 50 50">
                  <circle class="path" cx="25" cy="25" r="20" fill="none" stroke-width="5"></circle>
                </symbol>
<symbol id="ico21" viewBox="0 0 24 24"><path fill-rule="evenodd" clip-rule="evenodd" d="M5.30687 8.713C5.36364 8.57594 5.45978 8.45879 5.58313 8.37638C5.70649 8.29396 5.85151 8.24998 5.99987 8.25H17.9999C18.1481 8.25013 18.293 8.29419 18.4162 8.37661C18.5394 8.45903 18.6354 8.57611 18.6922 8.71308C18.7489 8.85004 18.7637 9.00074 18.7348 9.14614C18.7059 9.29154 18.6346 9.42511 18.5299 9.53L12.5299 15.53C12.3892 15.6705 12.1986 15.7493 11.9999 15.7493C11.8011 15.7493 11.6105 15.6705 11.4699 15.53L5.46987 9.53C5.36498 9.42519 5.29351 9.29163 5.2645 9.14621C5.23548 9.0008 5.25023 8.85004 5.30687 8.713Z" fill="currentColor"></path></symbol>
<symbol id="ico22" viewBox="0 0 24 24">
        <path stroke-linecap="round" stroke-linejoin="round" stroke-width="2" d="M8 12h.01M12 12h.01M16 12h.01M21 12c0 4.418-4.03 8-9 8a9.863 9.863 0 01-4.255-.949L3 20l1.395-3.72C3.512 15.042 3 13.574 3 12c0-4.418 4.03-8 9-8s9 3.582 9 8z"></path>
      </symbol>
<symbol id="ico23" viewBox="0 0 24 24"><path stroke-linecap="round" stroke-linejoin="round" stroke-width="2" d="M16 7a4 4 0 11-8 0 4 4 0 018 0zM12 14a7 7 0 00-7 7h14a7 7 0 00-7-7z"></path></symbol>
<symbol id="ico24" viewBox="0 0 24 24"><path stroke-linecap="round" stroke-linejoin="round" stroke-width="2" d="M6 18L18 6M6 6l12 12"></path></symbol>
<symbol id="ico25" viewBox="0 0 50 50">
          <circle class="path" cx="25" cy="25" r="20" fill="none" stroke-width="5"></circle>
        </symbol>
<symbol id="ico26" viewBox="0 0 50 50">
              <circle class="path" cx="25" cy="25" r="20" fill="none" stroke-width="5"></circle>
            </symbol>
<symbol id="ico27" viewBox="0 0 24 24"><path d="M20 6 9 17l-5-5"/></symbol>
<symbol id="ico28" viewBox="0 0 30 18"><rect width="30" height="18" rx="3" fill="#fff" fill-opacity="0.15"></rect><circle cx="11" cy="9" r="6" fill="#0090d1" fill-opacity="0.9"></circle><circle cx="19" cy="9" r="6" fill="#e21836" fill-opacity="0.9"></circle></symbol><symbol id="ico29" viewBox="0 0 24 24"><path fill="none" stroke="currentColor" stroke-width="1.5" stroke-linecap="round" stroke-linejoin="round" d="M14.857 17.082a23.848 23.848 0 0 0 5.454-1.31A8.967 8.967 0 0 1 18 9.75V9A6 6 0 0 0 6 9v.75a8.967 8.967 0 0 1-2.312 6.022c1.733.64 3.56 1.085 5.455 1.31m5.714 0a24.255 24.255 0 0 1-5.714 0m5.714 0a3 3 0 1 1-5.714 0M3.124 7.5A8.969 8.969 0 0 1 5.292 3m13.416 0a8.969 8.969 0 0 1 2.168 4.5"></path></symbol><symbol id="ico30" viewBox="0 0 24 24"><path fill="none" stroke="currentColor" stroke-width="1.5" stroke-linecap="round" stroke-linejoin="round" d="M15.75 5.25a3 3 0 0 1 3 3m3 0a6 6 0 0 1-7.029 5.912c-.563-.097-1.159.026-1.563.43L10.5 17.25H8.25v2.25H6v2.25H2.25v-2.818c0-.597.237-1.17.659-1.591l6.499-6.499c.404-.404.527-1 .43-1.563A6 6 0 1 1 21.75 8.25Z"></path></symbol></svg>